<svg width="300" height="37" viewBox="0 0 300 37" fill="none" xmlns="http://www.w3.org/2000/svg">
<g clip-path="url(#clip0_281_13)">
<path d="M69.9165 13.6538H44.5492L43.6094 14.3567V36.9233H50.6317V28.4609L51.302 27.8603H69.9174C74.6176 27.8603 76.8212 26.5957 76.8212 23.3509V18.1695C76.8203 14.9193 74.6176 13.6538 69.9165 13.6538ZM69.9165 21.9968C69.9165 23.5255 68.9052 23.843 66.7016 23.843H51.3789L50.6308 23.1157V18.2816L51.3011 17.6683H66.7016C68.9052 17.6683 69.9165 17.9822 69.9165 19.5182V21.9968Z" fill="white"/>
<path d="M89.6263 17.9225L95.6689 26.7757L95.3342 27.6332H81.9708L78.5596 31.8296H98.4514L99.83 32.6691L102.918 36.9288H110.955L93.3396 13.3652" fill="white"/>
<path d="M169.535 32.3452V26.0819L170.258 25.4577H183.702V21.4694H162.394V36.9279H193.825V32.9585H170.289" fill="white"/>
<path d="M194.157 13.6538H162.394V18.0392H194.157V13.6538Z" fill="white"/>
<path d="M126.967 17.8067H152.556C152.162 14.553 150.143 13.6502 145.021 13.6502H126.695C120.916 13.6502 119.072 14.7782 119.072 19.1519V31.4225C119.072 35.8007 120.916 36.9288 126.695 36.9288H145.021C150.218 36.9288 152.208 35.9527 152.344 32.5777H126.967L126.215 31.8694V18.2807" fill="white"/>
<path d="M26.534 22.7213H7.91851L7.37033 22.118V18.136L7.9158 17.7145H33.0108L33.3536 16.8759C32.4988 14.6769 30.2853 13.6511 26.1748 13.6511H8.74259C2.96682 13.6511 1.12056 14.7791 1.12056 19.1528V21.7254C1.12056 26.1045 2.96682 27.2307 8.74259 27.2307H27.3164L27.8999 27.7427V31.9056L27.4241 32.5551H6.17809V32.5352H0.613089C0.613089 32.5352 -0.0237388 32.8545 0.000684989 33.0038C0.475592 36.0631 2.55975 36.9297 7.54944 36.9297H26.534C32.3088 36.9297 34.2103 35.8016 34.2103 31.4234V28.2185C34.2103 23.8476 32.3088 22.7213 26.534 22.7213Z" fill="white"/>
<path d="M214.137 13.5579H203.688L203.121 14.6371L214.725 23.0958C216.923 21.8231 219.315 20.5332 221.917 19.2604" fill="white"/>
<path d="M223.5 29.4922L233.699 36.9296H244.275L244.713 35.9446L229.483 24.7974C227.461 26.2818 225.462 27.8494 223.5 29.4922Z" fill="white"/>
<path d="M212.582 36.9125H203.128L202.33 35.6614C208.758 29.4551 237.507 2.85035 299.999 0C299.999 0 247.546 1.76937 212.582 36.9125Z" fill="#A7A9AC"/>
</g>
<defs>
<clipPath id="clip0_281_13">
<rect width="300" height="36.9297" fill="white"/>
</clipPath>
</defs>
</svg>
